<?xml version="1.0" encoding="UTF-8"?>
<svg id="_图层_1" data-name="图层_1" xmlns="http://www.w3.org/2000/svg" version="1.1" xmlns:h5="http://www.w3.org/1999/xhtml" xmlns:xlink="http://www.w3.org/1999/xlink" viewBox="0 0 216.9 46.7">
  <!-- Generator: Adobe Illustrator 29.1.0, SVG Export Plug-In . SVG Version: 2.1.0 Build 142)  -->
  <defs>
    <style>
      .st0 {
        stroke: #ff4136;
      }

      .st0, .st1 {
        fill: none;
      }

      .st1 {
        stroke: #000;
        stroke-width: .7px;
      }

      .st2 {
        fill: #ff4136;
      }
    </style>
    <symbol id="g169F928D930B4354B64B53548A22B547" viewBox="0 0 4.8 6.9">
      <path class="st2" d="M4.8,6.9v-.3c-.4,0-.6,0-1-.5l-1.3-1.8s0,0,0-.1.7-.6.8-.7c.6-.5,1.1-.5,1.3-.5v-.3c-.3,0-.4,0-.7,0s-1,0-1.1,0v.3c.2,0,.3.1.3.2,0,.2-.1.3-.2.4l-1.4,1.2V0H0v.4c.7,0,.8,0,.8.6v5.2c0,.4-.1.4-.8.4v.3h1.1s1.1,0,1.1,0v-.3c-.7,0-.8,0-.8-.4v-1l.6-.5c.8,1.1,1.2,1.6,1.2,1.8s-.2.2-.4.2v.3h1.1c.3,0,.6,0,.9,0Z"/>
    </symbol>
    <symbol id="g2884E45C22C78BF3167002D1BBEDCAC0" viewBox="0 0 3.3 4.6">
      <path class="st2" d="M3.3,3.2c0-.5-.3-.8-.4-1-.3-.3-.7-.4-1.1-.5-.6-.1-1.2-.2-1.2-.8S.7.2,1.6.2s1.1.9,1.2,1.2c0,0,.1,0,.1,0,.1,0,.1,0,.1-.2V.2c0-.2,0-.2-.1-.2s0,0-.2.1c0,0-.1.1-.2.2-.4-.3-.8-.3-.9-.3C.4,0,0,.7,0,1.2s.2.6.4.9c.3.3.6.3,1.3.5.2,0,1,.2,1,.9s-.3.9-1.1.9S.5,3.8.3,3c0-.1,0-.2-.1-.2s-.1,0-.1.2v1.3c0,.2,0,.2.1.2s0,0,.2-.2c0,0,0,0,.2-.2.4.4.9.4,1.1.4,1.1,0,1.6-.7,1.6-1.4Z"/>
    </symbol>
    <symbol id="g32AC2069716901F1C6A5E538DF70C7A0" viewBox="0 0 3.1 6.3">
      <path class="st2" d="M3.1,4.9v-.6h-.2v.5c0,.7-.3,1.1-.7,1.1-.7,0-.7-.9-.7-1.1v-2.8h1.4v-.3h-1.4V0h-.2c0,.8-.3,1.9-1.3,1.9v.2h.8v2.8c0,1.2.9,1.4,1.3,1.4.7,0,1-.7,1-1.4Z"/>
    </symbol>
    <symbol id="g450C6E43BD784561F78F5B3C854B74A4" viewBox="0 0 .4 10">
      <path d="M.4,9.8V.2c0-.1,0-.2-.2-.2s-.2,0-.2.2v9.6c0,.1,0,.2.2.2s.2,0,.2-.2Z"/>
    </symbol>
    <symbol id="g4DDF56CFB25D751ECDBB497DDC484BAD" viewBox="0 0 4.2 6.9">
      <path d="M4.2,3.5c0-.8,0-1.6-.4-2.3-.5-1-1.3-1.1-1.7-1.1C1.5,0,.8.3.4,1.2c-.3.7-.4,1.5-.4,2.3s0,1.6.4,2.4c.4.8,1.2,1,1.7,1s1.3-.2,1.7-1.2c.3-.7.4-1.5.4-2.3ZM3.4,3.3c0,.8,0,1.4-.1,2.1-.1,1-.7,1.2-1.2,1.2s-1-.2-1.2-1.2c-.1-.6-.1-1.5-.1-2.1s0-1.3,0-1.8C1.1.3,1.9.2,2.1.2s1,.2,1.2,1.2c.1.6.1,1.3.1,2Z"/>
    </symbol>
    <symbol id="g52716F0CDF08A239A7B8FA14573D2434" viewBox="0 0 3.9 4.6">
      <path class="st2" d="M3.9,3.3c0-.1,0-.1-.1-.1,0,0-.1,0-.1.1-.3,1-1.2,1-1.3,1-.5,0-.9-.3-1.1-.7-.3-.5-.3-1.1-.3-1.5h2.8c.2,0,.3,0,.3-.2,0-1-.5-2-1.8-2S0,1,0,2.3s1,2.3,2.2,2.3,1.7-1.1,1.7-1.3ZM3.2,2H.8C.9.5,1.7.2,2.1.2c1,0,1.1,1.3,1.1,1.7Z"/>
    </symbol>
    <symbol id="g5FBD8D581B5C3EC73E7F1A9D68CDF88E" viewBox="0 0 2.1 6.6">
      <path class="st2" d="M2.1,6.6v-.3c-.7,0-.7,0-.7-.4v-3.7H0v.4c.6,0,.7,0,.7.6v2.7c0,.4-.1.4-.8.4v.3h1.1c.4,0,.7,0,1,0ZM1.6.5c0-.3-.2-.5-.5-.5s-.5.3-.5.5.2.5.5.5.5-.3.5-.5Z"/>
    </symbol>
    <symbol id="g668CD82964A87384A06BEBF53036B64" viewBox="0 0 4.3 3.2">
      <path d="M4.3,2.1c0,0,0,0-.1,0,0,0-.1,0-.1.1-.2.6-.5.8-.7.8s-.2,0-.2-.2,0-.3.2-.6c0-.2.4-1,.4-1.4,0-.7-.5-.8-.9-.8-.6,0-1,.4-1.2.6,0-.5-.5-.6-.7-.6S.3.2.3.4c-.2.3-.3.7-.3.7,0,0,0,0,.1,0,0,0,.1,0,.2-.2.1-.4.2-.8.5-.8s.2.2.2.3,0,.4-.1.6l-.2.6-.2.9c0,0,0,.3,0,.3,0,.2.1.2.2.2s.2,0,.3-.2c0,0,0-.3.1-.4l.2-.6c0-.2,0-.3.1-.5,0-.3,0-.3.3-.6.2-.3.5-.6,1.1-.6s.4.4.4.5c0,.4-.3,1.2-.4,1.5,0,.2-.1.3-.1.4,0,.4.3.6.7.6.7,0,1-1,1-1.1Z"/>
    </symbol>
    <symbol id="g73306CBD02E3447FF6DB948FF3113FD1" viewBox="0 0 4.9 4.4">
      <path class="st2" d="M4.9.3v-.3c-.2,0-.5,0-.8,0h-.9s0,.3,0,.3c.4,0,.5.2.5.4s0,.1,0,.2l-1,2.5L1.6.7c0-.1,0-.2,0-.2,0-.3.4-.3.6-.3v-.3H1c-.3,0-.7,0-1,0v.3c.6,0,.7,0,.8.4l1.4,3.5c0,.1,0,.2.2.2s.2,0,.2-.2L4,1c0-.2.3-.7.9-.7Z"/>
    </symbol>
    <symbol id="g75DCAE1646EA2C162BBA4BF0C8DA2C3A" viewBox="0 0 7.1 7.3">
      <path d="M7.1,0s0,0-.1,0,0,0-.2.1l-.7.8c0-.1-.6-.9-1.7-.9C2.2,0,0,2.2,0,4.5s1.1,2.7,2.7,2.7.9,0,1.2-.2c.5-.2.7-.4.9-.6,0,.2.3.6.4.6s0,0,0,0c0,0,.1-.4.2-.6l.2-.8c0-.2,0-.3.1-.5.1-.4.1-.5.7-.5,0,0,.2,0,.2-.2s0-.1-.1-.1c-.2,0-.8,0-1.1,0h-1.4c0,0-.2,0-.2.2s0,.1.3.1c0,0,.3,0,.5,0,.3,0,.3,0,.3.2s-.1.5-.2.9c-.3,1.1-1.6,1.2-1.9,1.2-1,0-2-.6-2-2.1s.1-2,1.1-3.3c.5-.7,1.5-1.3,2.5-1.3s1.6.8,1.6,1.9,0,.4,0,.5.1,0,.2,0c.1,0,.1,0,.2-.2L7.1,0Z"/>
    </symbol>
    <symbol id="g7AD76CC5DBF69A0DE1BF640F1B8EE262" viewBox="0 0 4.4 4.6">
      <path class="st2" d="M4.4,2.3c0-1.3-1-2.3-2.2-2.3S0,1.1,0,2.3s1,2.2,2.2,2.2,2.2-1,2.2-2.2ZM3.6,2.3c0,.4,0,.9-.2,1.3-.2.5-.7.7-1.2.7s-.9-.2-1.1-.7c-.2-.4-.2-1.1-.2-1.4s0-.9.2-1.4c.3-.5.7-.7,1.1-.7s.9.2,1.1.6.3,1,.3,1.4Z"/>
    </symbol>
    <symbol id="g7B94AC83A5F8F3863D57507C1AD3D691" viewBox="0 0 8.4 6.8">
      <path d="M8.4.1c0-.1-.1-.1-.1-.1h-1.3s-1.3,0-1.3,0c0,0-.2,0-.2.2s0,.1.3.1c0,0,.2,0,.4,0,.2,0,.3,0,.3.2s0,0,0,.2l-.6,2.4h-3l.6-2.4c0-.4.1-.5.8-.5s.3,0,.3-.2-.1-.1-.1-.1h-1.3s-1.3,0-1.3,0c0,0-.2,0-.2.2s0,.1.3.1c0,0,.2,0,.4,0,.2,0,.3,0,.3.2s0,0,0,.2l-1.3,5.4c-.1.4-.1.5-.9.5s-.3,0-.3.2.1.1.1.1h1.3s.6,0,.6,0c.2,0,.4,0,.6,0s.2,0,.2-.2,0-.1-.3-.1c-.4,0-.7,0-.7-.2s0-.1,0-.2l.7-2.7h3l-.7,2.8c0,.3-.3.3-.9.3s-.2,0-.2.2.1.1.1.1h1.3s.6,0,.6,0c.2,0,.4,0,.7,0s.2,0,.2-.2,0-.1-.3-.1c-.4,0-.6,0-.6-.2s0-.1,0-.2L7.2.8c0-.4.1-.5.8-.5s.3,0,.3-.2Z"/>
    </symbol>
    <symbol id="gADFDB8352CDCFA9675732856070C92B0" viewBox="0 0 6.6 1.1">
      <path d="M1.1.5c0-.3-.2-.5-.5-.5s-.5.2-.5.5.2.5.5.5.5-.2.5-.5ZM3.8.5c0-.3-.2-.5-.5-.5s-.5.2-.5.5.2.5.5.5.5-.2.5-.5ZM6.6.5c0-.3-.2-.5-.5-.5s-.5.2-.5.5.2.5.5.5.5-.2.5-.5Z"/>
    </symbol>
    <symbol id="gC81035B231D72B35651BD7282EB6013F" viewBox="0 0 3.4 4.4">
      <path class="st2" d="M3.4.6c0-.3-.3-.6-.7-.6-.7,0-1.1.7-1.2,1.1V0H0v.4c.7,0,.8,0,.8.6v2.7c0,.4-.1.4-.8.4v.3h1.1c.4,0,.9,0,1.3,0v-.3h-.2c-.7,0-.8-.1-.8-.5v-1.5C1.4,1.1,1.9.2,2.6.2s0,0,.1,0c0,0-.2.1-.2.4s.2.4.4.4.4-.1.4-.4Z"/>
    </symbol>
    <symbol id="gD6523B6646A983F98A093617F898C9DE" viewBox="0 0 4.8 4.8">
      <path d="M4.8,2.4c0-1.3-1.1-2.4-2.4-2.4S0,1.1,0,2.4s1.1,2.4,2.4,2.4,2.4-1.1,2.4-2.4ZM4,3.7l-1.3-1.3,1.3-1.3c.3.4.5.8.5,1.3s-.2,1-.5,1.3ZM3.7,4c-.4.3-.8.5-1.3.5s-1-.2-1.3-.5l1.3-1.3,1.3,1.3ZM.8,3.7c-.3-.4-.5-.8-.5-1.3s.2-1,.5-1.3l1.3,1.3-1.3,1.3ZM1.1.8c.4-.3.8-.5,1.3-.5s1,.2,1.3.5l-1.3,1.3L1.1.8Z"/>
    </symbol>
    <symbol id="gE2CD3CB876A028B9635D11831876AAEB" viewBox="0 0 7.8 4.4">
      <path class="st2" d="M7.8,4.4v-.3c-.5,0-.8,0-.8-.3v-1.9c0-.9,0-1.2-.3-1.5-.1-.2-.5-.4-1.1-.4-.8,0-1.3.6-1.4,1-.1-.9-.9-1-1.3-1-.7,0-1.2.4-1.5,1.1V0H0v.4c.7,0,.8,0,.8.6v2.7c0,.4-.1.4-.8.4v.3h1.1s1.1,0,1.1,0v-.3c-.7,0-.8,0-.8-.4v-1.8C1.5.8,2.2.2,2.8.2s.7.5.7,1.1v2.3c0,.4-.1.4-.8.4v.3h1.1s1.1,0,1.1,0v-.3c-.7,0-.8,0-.8-.4v-1.8c0-1,.7-1.6,1.4-1.6s.7.5.7,1.1v2.3c0,.4-.1.4-.8.4v.3h1.1s1.1,0,1.1,0Z"/>
    </symbol>
    <symbol id="gF1B74313CEB935616D436C451773179D" viewBox="0 0 6.8 7.3">
      <path class="st2" d="M6.8,4.6v-.3h-1.2c-.4,0-1.2,0-1.6,0v.3h.3c.9,0,.9.1.9.5v.6c0,1.1-1.3,1.2-1.6,1.2-.6,0-2.6-.4-2.6-3.3S3,.3,3.6.3c1.1,0,2,.9,2.2,2.4,0,.1,0,.2.2.2s.2,0,.2-.2V.2c0-.2,0-.2-.1-.2s0,0-.2.1l-.5.7c-.3-.3-.9-.9-1.8-.9C1.6,0,0,1.6,0,3.6s1.6,3.6,3.5,3.6,1.5-.3,1.9-.8c.1.2.5.6.6.6s0,0,0-.2v-1.7c0-.4,0-.4.7-.4Z"/>
    </symbol>
    <symbol id="gF369D03941FF7A6F5C17519BDE798F02" viewBox="0 0 5.6 4.4">
      <path d="M5.6,4.4v-.5h-.7l-1.7-2,1.2-1.3c.1-.1.2-.2,1-.2v-.5h-.9s-1,0-1,0v.5c.1,0,.3,0,.4,0,0,0,0,0,0,.1l-.8.9L2,.5h.4v-.5h-1.2S0,0,0,0v.5h.7l1.6,1.8-1.3,1.5c-.2.2-.5.2-1,.2v.5h.9s1,0,1,0v-.5c-.2,0-.4,0-.4-.1,0,0,0,0,0-.1l1-1.1,1.1,1.3h-.4v.5h1.2s1.1,0,1.1,0Z"/>
    </symbol>
    <symbol id="gF969BA28B1B85D9C76DF78A027B94B7" viewBox="0 0 2.3 10">
      <path d="M2.2,4.9L.4.1c0,0-.1-.1-.2-.1s-.2,0-.2.2,0,0,0,0l1.8,4.7L0,9.7s0,0,0,0c0,.1,0,.2.2.2s.2,0,.2-.1l1.9-4.8s0,0,0,0,0,0,0,0Z"/>
    </symbol>
    <symbol id="gFEC873EBE3F4944B4921E2701C088CD6" viewBox="0 0 4.5 4.6">
      <path class="st2" d="M4.5,3.6v-.6h-.2v.6c0,.6-.2.6-.4.6-.3,0-.4-.4-.4-.5V1.7c0-.4,0-.8-.4-1.2-.4-.4-.9-.6-1.4-.6C1,0,.3.5.3,1.1s.2.5.5.5.5-.2.5-.5,0-.5-.5-.5c.3-.4.8-.5,1.1-.5.5,0,1.1.4,1.1,1.3v.4c-.5,0-1.2,0-1.8.4-.7.3-1,.9-1,1.3,0,.8,1,1.1,1.6,1.1s1.1-.4,1.3-.9c0,.4.3.8.8.8s.8-.1.8-.9ZM2.8,3.1c0,.9-.7,1.3-1.2,1.3s-.9-.3-.9-.8.4-1.4,2.1-1.4v1Z"/>
    </symbol>
  </defs>
  <path class="st0" d="M77.8,4.8v26.8h84.1V4.8h-84.1Z"/>
  <use width="4.8" height="6.9" transform="translate(69.4 35.5)" xlink:href="#g169F928D930B4354B64B53548A22B547"/>
  <use width="3.1" height="6.3" transform="translate(77.9 36.3)" xlink:href="#g32AC2069716901F1C6A5E538DF70C7A0"/>
  <use width="2.1" height="6.6" transform="translate(82 35.9)" xlink:href="#g5FBD8D581B5C3EC73E7F1A9D68CDF88E"/>
  <use width="7.8" height="4.4" transform="translate(84.7 38)" xlink:href="#gE2CD3CB876A028B9635D11831876AAEB"/>
  <use width="3.9" height="4.6" transform="translate(93 38)" xlink:href="#g52716F0CDF08A239A7B8FA14573D2434"/>
  <use width="3.3" height="4.6" transform="translate(97.5 38)" xlink:href="#g2884E45C22C78BF3167002D1BBEDCAC0"/>
  <use width="6.8" height="7.3" transform="translate(105 35.4)" xlink:href="#gF1B74313CEB935616D436C451773179D"/>
  <use width="3.4" height="4.4" transform="translate(112.6 38)" xlink:href="#gC81035B231D72B35651BD7282EB6013F"/>
  <use width="4.4" height="4.6" transform="translate(116.5 38)" xlink:href="#g7AD76CC5DBF69A0DE1BF640F1B8EE262"/>
  <use width="4.9" height="4.4" transform="translate(121.1 38.1)" xlink:href="#g73306CBD02E3447FF6DB948FF3113FD1"/>
  <use width="3.9" height="4.6" transform="translate(126.2 38)" xlink:href="#g52716F0CDF08A239A7B8FA14573D2434"/>
  <use width="3.4" height="4.4" transform="translate(130.7 38)" xlink:href="#gC81035B231D72B35651BD7282EB6013F"/>
  <use width="2.1" height="6.6" transform="translate(138 35.9)" xlink:href="#g5FBD8D581B5C3EC73E7F1A9D68CDF88E"/>
  <use width="3.1" height="6.3" transform="translate(140.6 36.3)" xlink:href="#g32AC2069716901F1C6A5E538DF70C7A0"/>
  <use width="3.9" height="4.6" transform="translate(144.6 38)" xlink:href="#g52716F0CDF08A239A7B8FA14573D2434"/>
  <use width="3.4" height="4.4" transform="translate(149 38)" xlink:href="#gC81035B231D72B35651BD7282EB6013F"/>
  <use width="4.5" height="4.6" transform="translate(153 38)" xlink:href="#gFEC873EBE3F4944B4921E2701C088CD6"/>
  <use width="3.1" height="6.3" transform="translate(157.9 36.3)" xlink:href="#g32AC2069716901F1C6A5E538DF70C7A0"/>
  <use width="4.4" height="4.6" transform="translate(161.8 38)" xlink:href="#g7AD76CC5DBF69A0DE1BF640F1B8EE262"/>
  <use width="3.4" height="4.4" transform="translate(166.8 38)" xlink:href="#gC81035B231D72B35651BD7282EB6013F"/>
  <path class="st1" d="M31.7,18.2h12"/>
  <path class="st1" d="M71.8,18.2h12"/>
  <path class="st1" d="M99.6,18.2h12"/>
  <path class="st1" d="M128,18.2h12"/>
  <path class="st1" d="M155.8,18.2h12"/>
  <path class="st1" d="M190.1,18.2h12"/>
  <use width=".4" height="10" transform="translate(6.3 14.1)" xlink:href="#g450C6E43BD784561F78F5B3C854B74A4"/>
  <use width="4.2" height="6.9" transform="translate(8.3 15)" xlink:href="#g4DDF56CFB25D751ECDBB497DDC484BAD"/>
  <use width="2.3" height="10" transform="translate(13.4 14.1)" xlink:href="#gF969BA28B1B85D9C76DF78A027B94B7"/>
  <use width="4.8" height="4.8" transform="translate(17.1 13.8)" xlink:href="#gD6523B6646A983F98A093617F898C9DE"/>
  <use width="4.3" height="3.2" transform="translate(22.5 14.9)" xlink:href="#g668CD82964A87384A06BEBF53036B64"/>
  <path class="st1" d="M43.7,10.8v14.8h28v-14.8h-28Z"/>
  <use width="8.4" height="6.8" transform="translate(48.1 14.8)" xlink:href="#g7B94AC83A5F8F3863D57507C1AD3D691"/>
  <use width="4.8" height="4.8" transform="translate(57.1 13.8)" xlink:href="#gD6523B6646A983F98A093617F898C9DE"/>
  <use width="4.3" height="3.2" transform="translate(62.6 14.9)" xlink:href="#g668CD82964A87384A06BEBF53036B64"/>
  <path class="st1" d="M83.8,10.8v14.8h15.9v-14.8h-15.9Z"/>
  <use width="7.1" height="7.3" transform="translate(88.3 14.6)" xlink:href="#g75DCAE1646EA2C162BBA4BF0C8DA2C3A"/>
  <use width="6.6" height="1.1" transform="translate(116.5 17.7)" xlink:href="#gADFDB8352CDCFA9675732856070C92B0"/>
  <path class="st1" d="M140,10.8v14.8h15.9v-14.8h-15.9Z"/>
  <use width="7.1" height="7.3" transform="translate(144.5 14.6)" xlink:href="#g75DCAE1646EA2C162BBA4BF0C8DA2C3A"/>
  <path class="st1" d="M167.8,10.8v14.8h22.2v-14.8h-22.2Z"/>
  <path class="st1" d="M171.8,22.3s1.4-4.8,7.1-4.8,7.1,4.8,7.1,4.8"/>
  <path class="st1" d="M179,23l5.7-6.1"/>
  <path d="M187.2,14.1l-3.6,1.8,2.1,1.9,1.6-3.7Z"/>
  <use width="5.6" height="4.4" transform="translate(206.3 17.2)" xlink:href="#gF369D03941FF7A6F5C17519BDE798F02"/>
</svg>