<?xml version="1.0" encoding="UTF-8"?>
<svg id="_图层_1" data-name="图层_1" xmlns="http://www.w3.org/2000/svg" version="1.1" xmlns:h5="http://www.w3.org/1999/xhtml" xmlns:xlink="http://www.w3.org/1999/xlink" viewBox="0 0 216.881 46.679">
  <!-- Generator: Adobe Illustrator 29.1.0, SVG Export Plug-In . SVG Version: 2.1.0 Build 142)  -->
  <defs>
    <style>
      .st0 {
        stroke: #ff4136;
      }

      .st0, .st1 {
        fill: none;
      }

      .st1 {
        stroke: #000;
        stroke-width: .7px;
      }

      .st2 {
        fill: #ff4136;
      }
    </style>
    <symbol id="g169F928D930B4354B64B53548A22B547" viewBox="0 0 4.83 6.94">
      <path class="st2" d="M4.83,6.94v-.31c-.37,0-.59,0-.97-.53l-1.27-1.79c-.01-.02-.06-.08-.06-.11,0-.04.71-.64.81-.72.63-.51,1.05-.53,1.26-.54v-.31c-.29.03-.42.03-.7.03-.36,0-.98-.02-1.12-.03v.31c.19.01.29.12.29.25,0,.2-.14.32-.22.39l-1.41,1.22V0L0,.11v.31c.7,0,.78.07.78.56v5.2c0,.45-.11.45-.78.45v.31l1.09-.03,1.1.03v-.31c-.67,0-.78,0-.78-.45v-1.03l.64-.55c.77,1.06,1.19,1.62,1.19,1.8,0,.19-.17.23-.36.23v.31l1.08-.03c.29,0,.58.01.87.03Z"/>
    </symbol>
    <symbol id="g2884E45C22C78BF3167002D1BBEDCAC0" viewBox="0 0 3.27 4.59">
      <path class="st2" d="M3.27,3.2c0-.53-.3-.83-.42-.95-.33-.32-.72-.4-1.14-.48-.56-.11-1.23-.24-1.23-.82C.48.6.74.19,1.6.19c1.1,0,1.15.9,1.17,1.21.01.09.12.09.12.09.13,0,.13-.05.13-.24V.24c0-.17,0-.24-.11-.24-.05,0-.07,0-.2.12-.03.04-.13.13-.17.16-.38-.28-.79-.28-.94-.28C.38,0,0,.67,0,1.23c0,.35.16.63.43.85.32.26.6.32,1.32.46.22.04,1.04.2,1.04.92,0,.51-.35.91-1.13.91-.84,0-1.2-.57-1.39-1.42-.03-.13-.04-.17-.14-.17-.13,0-.13.07-.13.25v1.32c0,.17,0,.24.11.24.05,0,.06-.01.25-.2.02-.02.02-.04.2-.23.44.42.89.43,1.1.43,1.15,0,1.61-.67,1.61-1.39Z"/>
    </symbol>
    <symbol id="g32AC2069716901F1C6A5E538DF70C7A0" viewBox="0 0 3.13 6.26">
      <path class="st2" d="M3.13,4.91v-.57h-.25v.55c0,.74-.3,1.12-.67,1.12-.67,0-.67-.91-.67-1.08v-2.78h1.43v-.31h-1.43V0h-.25c-.01.82-.31,1.89-1.29,1.93v.22h.85v2.76c0,1.23.93,1.35,1.29,1.35.71,0,.99-.71.99-1.35Z"/>
    </symbol>
    <symbol id="g450C6E43BD784561F78F5B3C854B74A4" viewBox="0 0 .4 10">
      <path d="M.4,9.8V.2c0-.11-.09-.2-.2-.2s-.2.09-.2.2v9.6c0,.11.09.2.2.2s.2-.09.2-.2Z"/>
    </symbol>
    <symbol id="g4DDF56CFB25D751ECDBB497DDC484BAD" viewBox="0 0 4.21 6.88">
      <path d="M4.21,3.46c0-.8-.05-1.6-.4-2.34-.46-.96-1.28-1.12-1.7-1.12C1.51,0,.78.26.37,1.19c-.32.69-.37,1.47-.37,2.27,0,.75.04,1.65.45,2.41.43.81,1.16,1.01,1.65,1.01.54,0,1.3-.21,1.74-1.16.32-.69.37-1.47.37-2.26ZM3.38,3.34c0,.75,0,1.43-.11,2.07-.15.95-.72,1.25-1.17,1.25-.39,0-.98-.25-1.16-1.21-.11-.6-.11-1.52-.11-2.11,0-.64,0-1.3.08-1.84C1.1.31,1.85.22,2.1.22c.33,0,.99.18,1.18,1.17.1.56.1,1.32.1,1.95Z"/>
    </symbol>
    <symbol id="g52716F0CDF08A239A7B8FA14573D2434" viewBox="0 0 3.87 4.59">
      <path class="st2" d="M3.87,3.29c0-.1-.08-.12-.13-.12-.09,0-.11.06-.13.14-.35,1.03-1.25,1.03-1.35,1.03-.5,0-.9-.3-1.13-.67-.3-.48-.3-1.14-.3-1.5h2.79c.22,0,.25,0,.25-.21,0-.99-.54-1.96-1.79-1.96C.92,0,0,1.03,0,2.28c0,1.34,1.05,2.31,2.2,2.31,1.22,0,1.67-1.11,1.67-1.3ZM3.21,1.96H.84C.9.47,1.74.22,2.08.22c1.03,0,1.13,1.35,1.13,1.74Z"/>
    </symbol>
    <symbol id="g5FBD8D581B5C3EC73E7F1A9D68CDF88E" viewBox="0 0 2.14 6.57">
      <path class="st2" d="M2.14,6.57v-.31c-.66,0-.7-.05-.7-.44v-3.67l-1.4.11v.31c.65,0,.74.06.74.55v2.69c0,.45-.11.45-.78.45v.31l1.1-.03c.35,0,.7.02,1.04.03ZM1.59.53c0-.27-.23-.53-.53-.53-.34,0-.54.28-.54.53,0,.27.23.53.53.53.34,0,.54-.28.54-.53Z"/>
    </symbol>
    <symbol id="g668CD82964A87384A06BEBF53036B64" viewBox="0 0 4.277 3.157">
      <path d="M4.277,2.086c0-.091-.091-.091-.112-.091-.098,0-.105.042-.133.119-.161.56-.462.847-.742.847-.147,0-.175-.098-.175-.245,0-.161.035-.252.161-.567.084-.217.371-.959.371-1.351,0-.679-.539-.798-.91-.798-.581,0-.973.357-1.183.637-.049-.483-.462-.637-.749-.637-.301,0-.462.217-.553.378-.154.259-.252.658-.252.693,0,.091.098.091.119.091.098,0,.105-.021.154-.21.105-.413.238-.756.511-.756.182,0,.231.154.231.343,0,.133-.063.392-.112.581l-.154.63-.224.896c-.028.091-.07.266-.07.287,0,.154.126.224.238.224.126,0,.238-.091.273-.154.035-.063.091-.287.126-.434l.154-.63c.042-.154.084-.308.119-.469.077-.287.091-.343.294-.63.196-.28.525-.644,1.05-.644.406,0,.413.357.413.49,0,.42-.301,1.197-.413,1.491-.077.196-.105.259-.105.378,0,.371.308.602.665.602.7,0,1.008-.966,1.008-1.071Z"/>
    </symbol>
    <symbol id="g73306CBD02E3447FF6DB948FF3113FD1" viewBox="0 0 4.89 4.42">
      <path class="st2" d="M4.89.31v-.31c-.23.02-.52.03-.75.03l-.87-.03v.31c.37.01.48.24.48.43,0,.09-.02.13-.06.24l-1.02,2.55L1.55.74c-.06-.13-.06-.17-.06-.17,0-.26.39-.26.57-.26v-.31L.97.03c-.27,0-.67-.01-.97-.03v.31c.63,0,.67.06.8.37l1.44,3.55c.06.14.08.19.21.19s.17-.09.21-.19L3.97.98c.09-.23.26-.66.92-.67Z"/>
    </symbol>
    <symbol id="g75DCAE1646EA2C162BBA4BF0C8DA2C3A" viewBox="0 0 7.1 7.27">
      <path d="M7.1.1c0-.03-.02-.1-.11-.1-.03,0-.04.01-.15.12l-.7.77c-.09-.14-.55-.89-1.66-.89C2.25,0,0,2.21,0,4.53c0,1.59,1.11,2.74,2.73,2.74.44,0,.89-.09,1.25-.24.5-.2.69-.41.87-.61.09.25.35.62.45.62.05,0,.07-.04.07-.04.02-.02.12-.4.17-.61l.19-.77c.04-.17.09-.34.13-.51.11-.45.12-.47.69-.48.05,0,.16-.01.16-.2,0-.07-.05-.11-.13-.11-.23,0-.82.03-1.05.03l-1.4-.03c-.09,0-.21,0-.21.2,0,.11.08.11.3.11,0,0,.3,0,.53.02.26.03.31.06.31.19,0,.09-.11.54-.21.91-.28,1.1-1.58,1.21-1.93,1.21-.96,0-2.01-.57-2.01-2.1,0-.31.1-1.96,1.15-3.26.54-.68,1.51-1.29,2.5-1.29,1.02,0,1.61.77,1.61,1.93,0,.4-.03.41-.03.51s.11.1.15.1c.13,0,.13-.02.18-.2L7.1.1Z"/>
    </symbol>
    <symbol id="g7AD76CC5DBF69A0DE1BF640F1B8EE262" viewBox="0 0 4.43 4.59">
      <path class="st2" d="M4.43,2.34c0-1.28-1-2.34-2.21-2.34C.97,0,0,1.09,0,2.34c0,1.29,1.04,2.25,2.21,2.25,1.21,0,2.22-.98,2.22-2.25ZM3.6,2.26c0,.36,0,.9-.22,1.34-.22.45-.66.74-1.16.74-.43,0-.87-.21-1.14-.67-.25-.44-.25-1.05-.25-1.41,0-.39,0-.93.24-1.37.27-.46.74-.67,1.14-.67.44,0,.87.22,1.13.65s.26,1.01.26,1.39Z"/>
    </symbol>
    <symbol id="g7B94AC83A5F8F3863D57507C1AD3D691" viewBox="0 0 8.42 6.83">
      <path d="M8.42.11c0-.11-.11-.11-.14-.11l-1.28.03-1.29-.03c-.08,0-.19,0-.19.2,0,.11.09.11.28.11,0,0,.21,0,.38.02.18.02.27.03.27.16,0,.04-.01.06-.04.19l-.6,2.44h-3.05l.59-2.35c.09-.36.12-.46.84-.46.26,0,.34,0,.34-.2,0-.11-.11-.11-.14-.11l-1.28.03-1.29-.03c-.08,0-.19,0-.19.2,0,.11.09.11.28.11,0,0,.21,0,.38.02.18.02.27.03.27.16,0,.04-.01.07-.04.19l-1.34,5.37c-.1.39-.12.47-.91.47-.18,0-.27,0-.27.2,0,.11.14.11.14.11l1.27-.03.64.01c.22,0,.44.02.65.02.08,0,.2,0,.2-.2,0-.11-.09-.11-.28-.11-.37,0-.65,0-.65-.18,0-.06.02-.11.03-.17l.68-2.74h3.05l-.69,2.76c-.1.32-.29.33-.91.33-.15,0-.24,0-.24.2,0,.11.14.11.14.11l1.27-.03.64.01c.22,0,.44.02.65.02.08,0,.2,0,.2-.2,0-.11-.09-.11-.28-.11-.37,0-.65,0-.65-.18,0-.06.02-.11.03-.17L7.24.77c.09-.36.11-.46.84-.46.26,0,.34,0,.34-.2Z"/>
    </symbol>
    <symbol id="gADFDB8352CDCFA9675732856070C92B0" viewBox="0 0 6.64 1.06">
      <path d="M1.06.53c0-.29-.24-.53-.53-.53s-.53.24-.53.53.24.53.53.53.53-.24.53-.53ZM3.85.53c0-.29-.24-.53-.53-.53s-.53.24-.53.53.24.53.53.53.53-.24.53-.53ZM6.64.53c0-.29-.24-.53-.53-.53s-.53.24-.53.53.24.53.53.53.53-.24.53-.53Z"/>
    </symbol>
    <symbol id="gC81035B231D72B35651BD7282EB6013F" viewBox="0 0 3.36 4.42">
      <path class="st2" d="M3.36.61c0-.32-.31-.61-.74-.61-.73,0-1.09.67-1.23,1.1V0L0,.11v.31c.7,0,.78.07.78.56v2.68c0,.45-.11.45-.78.45v.31l1.14-.03c.4,0,.87,0,1.27.03v-.31h-.21c-.74,0-.76-.11-.76-.47v-1.54C1.44,1.11,1.86.22,2.62.22c.07,0,.09,0,.11.01-.03.01-.23.13-.23.39,0,.28.21.43.43.43.18,0,.43-.12.43-.44Z"/>
    </symbol>
    <symbol id="gD6523B6646A983F98A093617F898C9DE" viewBox="0 0 4.788 4.788">
      <path d="M4.788,2.394c0-1.323-1.071-2.394-2.394-2.394S0,1.071,0,2.394s1.071,2.394,2.394,2.394,2.394-1.071,2.394-2.394ZM3.969,3.738l-1.344-1.344,1.344-1.344c.308.364.497.826.497,1.344s-.189.98-.497,1.344ZM3.738,3.969c-.364.308-.826.497-1.344.497s-.98-.189-1.344-.497l1.344-1.344,1.344,1.344ZM.819,3.738c-.308-.364-.497-.826-.497-1.344s.189-.98.497-1.344l1.344,1.344-1.344,1.344ZM1.05.819c.364-.308.826-.497,1.344-.497s.98.189,1.344.497l-1.344,1.344L1.05.819Z"/>
    </symbol>
    <symbol id="gE2CD3CB876A028B9635D11831876AAEB" viewBox="0 0 7.81 4.42">
      <path class="st2" d="M7.81,4.42v-.31c-.52,0-.77,0-.78-.3v-1.91c0-.86,0-1.17-.31-1.53-.14-.17-.47-.37-1.05-.37-.84,0-1.28.6-1.45.98-.14-.87-.88-.98-1.33-.98-.73,0-1.2.43-1.48,1.05V0L0,.11v.31c.7,0,.78.07.78.56v2.68c0,.45-.11.45-.78.45v.31l1.13-.03,1.12.03v-.31c-.67,0-.78,0-.78-.45v-1.84C1.47.78,2.18.22,2.82.22c.63,0,.74.54.74,1.11v2.33c0,.45-.11.45-.78.45v.31l1.13-.03,1.12.03v-.31c-.67,0-.78,0-.78-.45v-1.84c0-1.04.71-1.6,1.35-1.6.63,0,.74.54.74,1.11v2.33c0,.45-.11.45-.78.45v.31l1.13-.03,1.12.03Z"/>
    </symbol>
    <symbol id="gF1B74313CEB935616D436C451773179D" viewBox="0 0 6.79 7.27">
      <path class="st2" d="M6.79,4.63v-.31l-1.22.03c-.4,0-1.25,0-1.61-.03v.31h.32c.9,0,.93.11.93.48v.64c0,1.12-1.27,1.21-1.55,1.21-.65,0-2.63-.35-2.63-3.33S3,.31,3.6.31c1.07,0,1.98.9,2.18,2.37.02.14.02.17.16.17.16,0,.16-.03.16-.24V.24c0-.17,0-.24-.11-.24-.04,0-.08,0-.16.12l-.5.74c-.32-.32-.86-.86-1.85-.86C1.62,0,0,1.58,0,3.63s1.6,3.64,3.5,3.64c.73,0,1.53-.26,1.87-.85.13.22.53.62.64.62.09,0,.09-.08.09-.23v-1.74c0-.39.04-.44.69-.44Z"/>
    </symbol>
    <symbol id="gF369D03941FF7A6F5C17519BDE798F02" viewBox="0 0 5.63 4.44">
      <path d="M5.63,4.44v-.47h-.71l-1.68-1.99,1.17-1.3c.13-.14.19-.21,1.02-.21v-.47l-.92.03-1.03-.03v.47c.14,0,.26.02.38.09-.04.06-.04.08-.08.12l-.84.94L1.96.47h.4v-.47l-1.21.03-1.1-.03v.47h.71l1.56,1.84-1.31,1.47c-.17.19-.53.19-1.01.19v.47l.92-.03,1.03.03v-.47c-.18,0-.37-.05-.37-.11,0,0,0-.02.07-.1l.97-1.09,1.1,1.3h-.39v.47l1.2-.03,1.1.03Z"/>
    </symbol>
    <symbol id="gF969BA28B1B85D9C76DF78A027B94B7" viewBox="0 0 2.26 10">
      <path d="M2.25,4.93L.39.13c-.03-.08-.11-.13-.19-.13-.11,0-.2.09-.2.2,0,.03,0,.05.01.07l1.84,4.73L.01,9.73c-.01.02-.01.04-.01.07,0,.11.09.2.2.2.08,0,.16-.05.19-.13l1.86-4.8c.01-.02.01-.04.01-.07s0-.05-.01-.07Z"/>
    </symbol>
    <symbol id="gFEC873EBE3F4944B4921E2701C088CD6" viewBox="0 0 4.51 4.59">
      <path class="st2" d="M4.51,3.59v-.56h-.25v.56c0,.58-.25.64-.36.64-.33,0-.37-.45-.37-.5V1.73c0-.42,0-.81-.36-1.18-.39-.39-.89-.55-1.37-.55C.98,0,.29.47.29,1.13c0,.3.2.47.46.47.28,0,.46-.2.46-.46,0-.12-.05-.45-.51-.46.27-.35.76-.46,1.08-.46.49,0,1.06.39,1.06,1.28v.37c-.51.03-1.21.06-1.84.36-.75.34-1,.86-1,1.3,0,.81.97,1.06,1.6,1.06.66,0,1.12-.4,1.31-.87.04.4.31.82.78.82.21,0,.82-.14.82-.95ZM2.84,3.08c0,.95-.72,1.29-1.17,1.29-.49,0-.9-.35-.9-.85,0-.55.42-1.38,2.07-1.44v1Z"/>
    </symbol>
  </defs>
  <path class="st0" d="M77.756,4.793v26.83h84.09V4.793h-84.09Z"/>
  <use width="4.83" height="6.94" transform="translate(69.411 35.513)" xlink:href="#g169F928D930B4354B64B53548A22B547"/>
  <use width="3.13" height="6.26" transform="translate(77.931 36.303)" xlink:href="#g32AC2069716901F1C6A5E538DF70C7A0"/>
  <use width="2.14" height="6.57" transform="translate(81.961 35.883)" xlink:href="#g5FBD8D581B5C3EC73E7F1A9D68CDF88E"/>
  <use width="7.81" height="4.42" transform="translate(84.731 38.033)" xlink:href="#gE2CD3CB876A028B9635D11831876AAEB"/>
  <use width="3.87" height="4.59" transform="translate(93.021 37.973)" xlink:href="#g52716F0CDF08A239A7B8FA14573D2434"/>
  <use width="3.27" height="4.59" transform="translate(97.511 37.973)" xlink:href="#g2884E45C22C78BF3167002D1BBEDCAC0"/>
  <use width="6.79" height="7.27" transform="translate(105.011 35.403)" xlink:href="#gF1B74313CEB935616D436C451773179D"/>
  <use width="3.36" height="4.42" transform="translate(112.581 38.033)" xlink:href="#gC81035B231D72B35651BD7282EB6013F"/>
  <use width="4.43" height="4.59" transform="translate(116.501 37.973)" xlink:href="#g7AD76CC5DBF69A0DE1BF640F1B8EE262"/>
  <use width="4.89" height="4.42" transform="translate(121.131 38.143)" xlink:href="#g73306CBD02E3447FF6DB948FF3113FD1"/>
  <use width="3.87" height="4.59" transform="translate(126.221 37.973)" xlink:href="#g52716F0CDF08A239A7B8FA14573D2434"/>
  <use width="3.36" height="4.42" transform="translate(130.661 38.033)" xlink:href="#gC81035B231D72B35651BD7282EB6013F"/>
  <use width="2.14" height="6.57" transform="translate(137.961 35.883)" xlink:href="#g5FBD8D581B5C3EC73E7F1A9D68CDF88E"/>
  <use width="3.13" height="6.26" transform="translate(140.601 36.303)" xlink:href="#g32AC2069716901F1C6A5E538DF70C7A0"/>
  <use width="3.87" height="4.59" transform="translate(144.581 37.973)" xlink:href="#g52716F0CDF08A239A7B8FA14573D2434"/>
  <use width="3.36" height="4.42" transform="translate(149.021 38.033)" xlink:href="#gC81035B231D72B35651BD7282EB6013F"/>
  <use width="4.51" height="4.59" transform="translate(152.981 37.973)" xlink:href="#gFEC873EBE3F4944B4921E2701C088CD6"/>
  <use width="3.13" height="6.26" transform="translate(157.851 36.303)" xlink:href="#g32AC2069716901F1C6A5E538DF70C7A0"/>
  <use width="4.43" height="4.59" transform="translate(161.831 37.973)" xlink:href="#g7AD76CC5DBF69A0DE1BF640F1B8EE262"/>
  <use width="3.36" height="4.42" transform="translate(166.831 38.033)" xlink:href="#gC81035B231D72B35651BD7282EB6013F"/>
  <path class="st1" d="M31.718,18.208h12"/>
  <path class="st1" d="M71.756,18.208h12"/>
  <path class="st1" d="M99.616,18.208h12"/>
  <path class="st1" d="M127.986,18.208h12"/>
  <path class="st1" d="M155.846,18.208h12"/>
  <path class="st1" d="M190.091,18.208h12"/>
  <use width=".4" height="10" transform="translate(6.29 14.123)" xlink:href="#g450C6E43BD784561F78F5B3C854B74A4"/>
  <use width="4.21" height="6.88" transform="translate(8.27 14.963)" xlink:href="#g4DDF56CFB25D751ECDBB497DDC484BAD"/>
  <use width="2.26" height="10" transform="translate(13.41 14.123)" xlink:href="#gF969BA28B1B85D9C76DF78A027B94B7"/>
  <use width="4.788" height="4.788" transform="translate(17.099 13.849)" xlink:href="#gD6523B6646A983F98A093617F898C9DE"/>
  <use width="4.277" height="3.157" transform="translate(22.545 14.906)" xlink:href="#g668CD82964A87384A06BEBF53036B64"/>
  <path class="st1" d="M43.718,10.793v14.83h28.038v-14.83h-28.038Z"/>
  <use width="8.42" height="6.83" transform="translate(48.108 14.793)" xlink:href="#g7B94AC83A5F8F3863D57507C1AD3D691"/>
  <use width="4.788" height="4.788" transform="translate(57.137 13.849)" xlink:href="#gD6523B6646A983F98A093617F898C9DE"/>
  <use width="4.277" height="3.157" transform="translate(62.583 14.906)" xlink:href="#g668CD82964A87384A06BEBF53036B64"/>
  <path class="st1" d="M83.756,10.793v14.83h15.86v-14.83h-15.86Z"/>
  <use width="7.1" height="7.27" transform="translate(88.256 14.573)" xlink:href="#g75DCAE1646EA2C162BBA4BF0C8DA2C3A"/>
  <use width="6.64" height="1.06" transform="translate(116.486 17.678)" xlink:href="#gADFDB8352CDCFA9675732856070C92B0"/>
  <path class="st1" d="M139.986,10.793v14.83h15.86v-14.83h-15.86Z"/>
  <use width="7.1" height="7.27" transform="translate(144.486 14.573)" xlink:href="#g75DCAE1646EA2C162BBA4BF0C8DA2C3A"/>
  <path class="st1" d="M167.846,10.793v14.83h22.245v-14.83h-22.245Z"/>
  <path class="st1" d="M171.846,22.306s1.424-4.781,7.122-4.781,7.122,4.781,7.122,4.781"/>
  <path class="st1" d="M178.968,22.989l5.698-6.147"/>
  <path d="M187.249,14.055l-3.61,1.835,2.054,1.903,1.556-3.739Z"/>
  <use width="5.63" height="4.44" transform="translate(206.311 17.183)" xlink:href="#gF369D03941FF7A6F5C17519BDE798F02"/>
</svg>